<?xml version="1.0" encoding="utf-8"?>
<?xml-stylesheet type="text/xsl" href="rss1.xsl"?>
<rss version="2.0" xmlns:atom="http://www.w3.org/2005/Atom" xmlns:content="http://purl.org/rss/1.0/modules/content/" xmlns:dc="http://purl.org/dc/elements/1.1/" xmlns:media="http://search.yahoo.com/mrss/">
<channel>
 <title>Getty</title>
 <link>http://www.gettyimg.com/</link>
 <atom:link href="http://www.gettyimg.com/" rel="self" type="application/rss+xml" />

 
                <item>
                <title><![CDATA[【Albums (lossless)】FLAC - Thirty Seconds To Mars – It's The End Of The World But It's A Beautiful Day | Qobuz Hi-Res 24bit / 44.1kHz]]></title>
                <link><![CDATA[https://sharemania.us/threads/thirty-seconds-to-mars-%E2%80%93-its-the-end-of-the-world-but-its-a-beautiful-day-qobuz-hi-res-24bit-44-1khz.228395/]]></link>
                <description><![CDATA[<article>
<blockquote class="messageText SelectQuoteContainer ugc baseHtml">
<div style="text-align: center"><img src="https://static.qobuz.com/images/covers/wc/54/iwf0j621x54wc_600.jpg" class="bbCodeImage LbImage" alt="[​IMG]" data-url="https://static.qobuz.com/images/covers/wc/54/iwf0j621x54wc_600.jpg" style=""><br>
<span style="font-size: 15px"><b>30 Seconds To Mars – It's The End Of The World But It's A Beautiful Day</b></span><br>
<br>
<b>Label/Cat#:</b> Concord Records<br>
<b>Country:</b> Worldwide<br>
<b>Year:</b> 15 Sep 2023<br>
<b>Genre:</b> Rock, Pop<br>
<br>
<span style="font-size: 12px"><b>Tracklist</b></span><br>
<b>1.</b> Stuck <i>(03:03)</i><br>
<b>2.</b> Life Is Beautiful <i>(03:19)</i><br>
<b>3.</b> Seasons <i>(02:46)</i><br>
<b>4.</b> Get Up Kid <i>(02:58)</i><br>
<b>5.</b> Love These Days <i>(03:01)</i><br>
<b>6.</b> World On Fire <i>(03:18)</i><br>
<b>7.</b> 7:1 <i>(02:45)</i><br>
<b>8.</b> Never Not Love You <i>(03:14)</i><br>
<b>9.</b> Midnight Prayer <i>(02:34)</i><br>
<b>10.</b> Lost These Days <i>(03:05)</i><br>
<b>11.</b> Avalanche <i>(03:24)</i><br>
<br>
<b>Total length:</b> 33:27<br>
<div class="bbCodeBlock bbCodeVfcHH HiddenContent">
<div class="attribution type">Hidden Content:</div>
<blockquote>You must reply before you can see the hidden data contained here.</blockquote>
</div></div>
<div class="messageTextEndMarker">&nbsp;</div>
</blockquote>
</article>]]></description>
                <author><![CDATA[Yennefer]]></author>
                </item>

                
                <item>
                <title><![CDATA[【HD Live Performances】WEB-DL - Slipknot - Live Wacken Open Air 2022 MAGENTAMUSIK.WEB-DL.1080p-Tknobi]]></title>
                <link><![CDATA[https://sharemania.us/threads/slipknot-live-wacken-open-air-2022-magentamusik-web-dl-1080p-tknobi.228396/]]></link>
                <description><![CDATA[<article>
<blockquote class="messageText SelectQuoteContainer ugc baseHtml">
<div style="text-align: center"><img src="https://i.postimg.cc/nhV0WFMQ/Slipknot-Wacken-Open-Air-2022-mkv.jpg" class="bbCodeImage LbImage" alt="[​IMG]" data-url="https://i.postimg.cc/nhV0WFMQ/Slipknot-Wacken-Open-Air-2022-mkv.jpg" style=""><br>
​</div>
<div class="ToggleTriggerAnchor bbCodeSpoilerContainer">
<button type="button" class="button bbCodeSpoilerButton ToggleTrigger Tooltip JsOnly" data-target="> .SpoilerTarget"><span>Spoiler: <span class="SpoilerTitle">MediaInfo</span></span></button>
<div class="SpoilerTarget bbCodeSpoilerText">Format : Matroska<br>
Format version : Version 4<br>
File size : 4.49 GiB<br>
Duration : 1 h 27 min<br>
Overall bit rate mode : Variable<br>
Overall bit rate : 7 322 kb/s<br>
Movie name : Slipknot - Wacken Open Air 2022<br>
Encoded date : UTC 2022-08-05 23:40:21<br>
Writing application : mkvmerge v63.0.0 ('Everything') 64-bit<br>
Writing library : libebml v1.4.2 + libmatroska v1.6.4<br>
<br>
Video<br>
ID : 1<br>
Format : AVC<br>
Format/Info : Advanced Video Codec<br>
Format profile : High@L4.2<br>
Format settings : CABAC / 4 Ref Frames<br>
Format settings, CABAC : Yes<br>
Format settings, Reference frames : 4 frames<br>
Codec ID : V_MPEG4/ISO/AVC<br>
Duration : 1 h 27 min<br>
Bit rate mode : Variable<br>
Bit rate : 7 200 kb/s<br>
Width : 1 920 pixels<br>
Height : 1 080 pixels<br>
Display aspect ratio : 16:9<br>
Frame rate mode : Constant<br>
Frame rate : 25.000 FPS<br>
Standard : Component<br>
Color space : YUV<br>
Chroma subsampling : 4:2:0<br>
Bit depth : 8 bits<br>
Scan type : Progressive<br>
Bits/(Pixel*Frame) : 0.139<br>
Stream size : 4.41 GiB (98%)<br>
Default : Yes<br>
Forced : No<br>
Color range : Limited<br>
Color primaries : BT.709<br>
Transfer characteristics : BT.709<br>
Matrix coefficients : BT.709<br>
<br>
Audio<br>
ID : 2<br>
Format : AAC LC<br>
Format/Info : Advanced Audio Codec Low Complexity<br>
Codec ID : A_AAC-2<br>
Duration : 1 h 27 min<br>
Bit rate : 125 kb/s<br>
Channel(s) : 2 channels<br>
Channel layout : L R<br>
Sampling rate : 48.0 kHz<br>
Frame rate : 46.875 FPS (1024 SPF)<br>
Compression mode : Lossy<br>
Delay relative to video : -505 ms<br>
Stream size : 78.8 MiB (2%)<br>
Language : German<br>
Default : Yes<br>
Forced : No</div>
</div><br>
<b><span style="color: #ff9999">ALL CREDITS TO THE ORIGINAL CAPPER</span></b><br>
<br>
<div style="text-align: center">
<div class="bbCodeBlock bbCodeVfcHH HiddenContent">
<div class="attribution type">Hidden Content:</div>
<blockquote>You must either reply or click 'Like' to see the hidden information contained here.</blockquote>
</div></div>
<div class="messageTextEndMarker">&nbsp;</div>
</blockquote>
</article>]]></description>
                <author><![CDATA[tknobi]]></author>
                </item>

                </channel></rss>